<?xml version="1.0" encoding="UTF-8"?><svg xmlns="http://www.w3.org/2000/svg" xmlns:xlink="http://www.w3.org/1999/xlink" height="501.4" preserveAspectRatio="xMidYMid meet" version="1.0" viewBox="-0.1 -0.5 453.5 501.4" width="453.5" zoomAndPan="magnify"><g id="change1_1"><path d="M446.031,104.145l-87.283-46.131c-0.144-0.091-0.29-0.173-0.441-0.236l-0.01-0.004l0,0 c-0.802-0.334-1.729-0.365-2.722,0.027L6.261,196.078c-2.882,1.139-5.159,5.205-5.092,9.078l4.246,240.803 c0.041,2.361,0.954,4.095,2.309,4.839l-0.008,0.006l0.073,0.043c0.017,0.008,0.03,0.016,0.043,0.022l86.848,48.726L446.031,104.145z" fill="#FF2273"/></g><g id="change2_1"><path d="M22.943,224.547c1.881,0.82,4.511-1.33,6.446-1.575c2.035-0.261,4.282-0.064,5.709,1.59 c2.383,2.756,2.166,12.664,7.268,11.756c0.909-0.164,1.801-0.525,2.691-0.767c0.915-0.247,2.82-1.079,3.733-0.864 c3.915,0.912,6.079,5.92,7.885,9.045c4.804,8.309,9.395-2.871,14.962,1.781c2.287,1.909,2.552,4.186,3.96,6.663 c3.089,5.438,5.182,0.636,8.768,0.636c9.065,0,8.816,16.514,20.6,6.506c0.937-0.797,2.138-0.137,2.404,0.736 c6.122-0.896,13.847-3.021,16.227-8.57c2.308-5.387-0.222-11.822-6.207-12.922c-2.092-0.388-4.471-0.451-6.46-1.242 c-1.899-0.756-6.176-2.998-4.572-5.732c2.125-3.629-1.417-2.85-4.437-2.61c-3.098,0.239-5.536,0.401-8.404-0.789 c-0.807-0.332-1.396-1.238-0.85-2.088c4.582-7.158-9.923-3.666-13.189-4.095c-5.116-0.668-4.488-4.231-4.778-8.086 c-0.477-6.297-14.591,3.304-16.547-3.809c-0.886-3.219,1.712-7.865-4.554-7.396c-3.529,0.265-6.91,0.857-10.339-0.241 c-0.691-0.222-1.27-0.996-0.992-1.746c1.516-4.14-1.668-4.314-4.823-3.947c-1.527,0.178-3.077,0.387-4.616,0.412 c-1.744,0.031-2.096-0.508-1.662-2.238c0.686-2.713,2.84-6.646,1.981-9.52L6.261,196.078c-2.882,1.139-5.159,5.205-5.092,9.078 l0.229,12.934c4.164,0.492,7.759-3.932,12.468-3.674c2.146,0.117,3.899,2.767,5.001,4.322c1.089,1.535,1.965,3.211,2.97,4.799 C22.16,224.049,22.535,224.367,22.943,224.547z" fill="inherit"/></g><g id="change2_2"><path d="M356.066,67.881c1.552,0.945,3.453,2.441,3.522,4.451c0.063,1.783-0.344,3.08-0.729,4.824 c-1.217,5.518,7.275,4.357,9.525,4.107c5.272-0.597,6.088,1.108,5.977,7.043c-0.162,8.438,11.254,1.918,14.367,7.334 c1.365,2.375-0.059,6.737,2.604,8.219c2.9,1.615,12.232-1.623,15.087,0.264c3.214,2.125,2.327,7.338,7.627,7.351 c3.057,0.01,6.745-1.023,9.727-0.045c2.835,0.926,4.347,2.352,6.001,4.809c0.977,1.449,1.203,3.086,1.263,4.783l14.993-16.875 l-87.283-46.131c-0.144-0.091-0.289-0.173-0.451-0.24c-0.802-0.334-1.729-0.365-2.722,0.027l-14.294,5.143 C342.872,67.961,351.832,65.305,356.066,67.881z" fill="inherit"/></g><g id="change2_3"><path d="M100.127,484.404c-2.271,0-4.593-1.625-5.61-3.635c-1.283-2.516-1.479-4.869-1.435-7.664 c0.138-7.895-8.615-3.068-12.689-1.73c-1.837,0.603-4.823-0.252-5.845-1.995c-2.659-4.552-2.504-10.418-10.672-9.013 c-5.342,0.922-9.839,0.142-12.158-5.303c-1.111-2.605-2.533-8.16-7.474-4.984c-1.47,0.945-2.598,1.591-4.285,1.943 c-2.385,0.5-4.904-1.008-6.402-2.705c-2.935-3.332-1.543-9.238-7.572-10.076c-3.976-0.553-6.981,2.595-10.918,2.152 c-5.522-0.615-6.834-6.877-9.925-11.031l0.273,15.596c0.041,2.361,0.954,4.095,2.309,4.839l-0.008,0.006l0.073,0.043 c0.017,0.008,0.03,0.016,0.043,0.022l86.848,48.726l13.531-15.23C105.772,484.119,103.166,484.408,100.127,484.404z" fill="inherit"/></g><g id="change2_4"><path d="M94.932,498.736L5.969,450.882c-1.063-1.152-1.686-2.888-1.722-4.902L0.002,205.174c-0.078-4.385,2.481-8.854,5.828-10.182 L355.144,56.715c1.222-0.483,2.479-0.487,3.604-0.02c0.225,0.096,0.426,0.203,0.621,0.328l87.534,47.897L94.932,498.736z M9.767,450.613l84.667,45.164L444.17,104.48l-85.967-45.435c-0.167-0.1-0.259-0.149-0.354-0.19 c-0.57-0.242-1.189-0.228-1.844,0.031L6.69,197.164c-2.419,0.957-4.41,4.609-4.352,7.969l4.246,240.806 c0.032,1.834,0.667,3.268,1.703,3.836l1.498,0.824L9.767,450.613z" fill="inherit"/></g><g id="change3_1"><path d="M451.646,352.643c0.068,3.873-2.209,7.938-5.09,9.078L98.155,498.625c-2.879,1.144-5.456-0.209-5.524-4.079 l-4.972-240.302c-0.069-3.873,2.209-7.938,5.09-9.078l349.036-139.479c2.882-1.14,6.456,0.914,6.524,4.785L451.646,352.643z" fill="#00BFC3"/></g><g id="change2_5"><path d="M63.412,473.695L58.44,244.918c-0.078-4.391,2.482-8.864,5.83-10.188L413.302,95.254l0.867,2.17L65.133,236.9 c-2.422,0.959-4.415,4.611-4.354,7.971l4.972,228.775L63.412,473.695z" fill="inherit"/></g><g id="change2_6"><path d="M447.427,361.375L98.112,499.652c-3.354,1.326-6.147-1.264-6.229-5.774l-4.247-240.802 c-0.078-4.514,2.586-9.264,5.938-10.592L442.89,104.209c3.354-1.328,6.148,1.263,6.227,5.775l4.246,240.803 C453.445,355.297,450.779,360.047,447.427,361.375z M93.617,244.822c-2.396,0.949-4.299,4.342-4.242,7.564l4.246,240.801 c0.06,3.225,2.054,5.076,4.449,4.129l349.314-138.279c2.395-0.949,4.299-4.342,4.244-7.563l-4.249-240.802 c-0.058-3.223-2.053-5.073-4.448-4.125L93.617,244.822z" fill="inherit"/></g><g id="change4_1"><path d="M342.162,395.982c0.068,3.873-2.212,7.938-5.091,9.078l-130.342,51.596c-2.879,1.142-5.27-1.078-5.338-4.949 l-2.806-158.979c-0.065-3.873,2.212-7.937,5.09-9.078l130.344-51.594c2.878-1.144,5.271,1.075,5.337,4.948L342.162,395.982z" fill="#FFD33B"/></g><g id="change2_7"><path d="M337.938,404.717l-130.34,51.597c-3.355,1.326-6.147-1.264-6.229-5.775l-2.803-158.977c-0.08-4.515,2.584-9.263,5.938-10.59 l130.343-51.597c3.354-1.328,6.146,1.263,6.228,5.775l2.805,158.977C343.956,398.637,341.296,403.391,337.938,404.717z M204.547,283.309c-2.395,0.948-4.299,4.342-4.24,7.563l2.806,158.976c0.055,3.225,2.05,5.072,4.446,4.127l130.34-51.597 c2.397-0.946,4.301-4.342,4.241-7.563l-2.803-158.979c-0.056-3.223-2.053-5.071-4.447-4.121L204.547,283.309z" fill="inherit"/></g><g id="change1_2"><path d="M324.617 393.51L220.344 434.787 220.013 416.084 324.288 374.807z" fill="#FF2273"/></g><g id="change2_8"><path d="M237.763,430.244l-19.115,7.57l-0.411-23.381l19.116-7.566L237.763,430.244z M220.344,434.787l15.641-6.19l-0.331-18.705 l-15.641,6.192L220.344,434.787z" fill="inherit"/></g><g id="change2_9"><path d="M255.144,423.365l-19.118,7.568l-0.413-23.382l19.118-7.563L255.144,423.365z M237.722,427.906l15.642-6.19l-0.329-18.701 l-15.641,6.188L237.722,427.906z" fill="inherit"/></g><g id="change2_10"><path d="M272.521,416.486l-19.116,7.566l-0.411-23.38l19.116-7.565L272.521,416.486z M255.103,421.025l15.642-6.189l-0.331-18.703 l-15.642,6.193L255.103,421.025z" fill="inherit"/></g><g id="change2_11"><path d="M289.9,409.607l-19.115,7.565l-0.413-23.379l19.115-7.565L289.9,409.607z M272.479,414.148l15.642-6.191l-0.328-18.701 l-15.642,6.189L272.479,414.148z" fill="inherit"/></g><g id="change2_12"><path d="M307.279,402.729l-19.118,7.565l-0.41-23.377l19.115-7.569L307.279,402.729z M289.859,407.27l15.643-6.191l-0.331-18.703 l-15.64,6.191L289.859,407.27z" fill="inherit"/></g><g id="change2_13"><path d="M324.658,395.848l-19.116,7.569l-0.412-23.381l19.117-7.567L324.658,395.848z M307.238,400.391l15.643-6.191l-0.331-18.705 l-15.643,6.191L307.238,400.391z" fill="inherit"/></g><g id="change3_2"><path d="M218.122,399.705c-2.867,1.137-5.414-1.033-5.482-4.891L211,301.811c-0.067-3.857,2.365-8.002,5.232-9.138 l107.43-42.518c2.867-1.135,5.444,1.023,5.512,4.879l1.644,93.006c0.066,3.855-2.401,8.011-5.269,9.146L218.122,399.705z" fill="#00BFC3"/></g><g id="change2_14"><path d="M325.352,358.443l-106.775,42.26c-3.248,1.285-5.854-1.301-5.938-5.889L211,301.811c-0.082-4.588,2.399-9.191,5.647-10.478 l106.775-42.262c3.197-1.266,5.668,1.299,5.75,5.963l1.644,93.006C330.898,352.703,328.549,357.178,325.352,358.443z M216.688,293.672c-2.313,0.916-4.011,4.119-3.953,7.451l1.641,93.004c0.061,3.332,1.848,5.154,4.159,4.238l106.775-42.26 c2.541-1.008,3.817-4.476,3.767-7.379l-1.639-93.002c-0.053-2.904-1.434-5.32-3.975-4.314L216.688,293.672z" fill="inherit"/></g><g id="change5_1"><path d="M216.647,316.459c-2.867,1.138-5.41-1.037-5.479-4.895l-0.171-9.767c-0.065-3.856,2.362-7.997,5.229-9.131 l107.435-42.52c2.87-1.137,5.444,1.024,5.512,4.881l0.174,9.766c0.067,3.857-2.396,8.015-5.265,9.146L216.647,316.459z" fill="#FFF"/></g><g id="change2_15"><path d="M323.887,275.195L217.1,317.455c-3.241,1.285-5.85-1.303-5.932-5.891l-0.171-9.767c-0.08-4.588,2.399-9.19,5.644-10.473 l106.784-42.26c3.195-1.264,5.666,1.297,5.748,5.963l0.174,9.766C329.429,269.461,327.082,273.932,323.887,275.195z M216.682,293.662c-2.309,0.914-4.004,4.115-3.946,7.447l0.173,9.766c0.061,3.332,1.845,5.158,4.15,4.244l106.786-42.262 c2.539-1.004,3.816-4.469,3.765-7.373l-0.171-9.767c-0.053-2.901-1.434-5.317-3.973-4.313L216.682,293.662z" fill="inherit"/></g><g id="change1_3"><path d="M233.426,375.033c-2.866,1.137-5.404-1.039-5.472-4.896l-0.649-36.854c-0.068-3.857,2.487-8.176,5.354-9.311 l76.021-30.097c2.867-1.131,5.449,1.15,5.518,5.011l0.648,36.85c0.067,3.854-2.376,8.004-5.246,9.137L233.426,375.033z" fill="#FF2273"/></g><g id="change2_16"><path d="M233.88,376.031L233.88,376.031c-3.242,1.285-5.846-1.307-5.926-5.895l-0.649-36.854c-0.078-4.404,1.975-7.973,5.354-9.311 l76.021-30.097c3.377-1.332,5.439,0.537,5.518,5.011l0.648,36.85c0.084,4.74-2.205,9.113-5.442,10.393L233.88,376.031z M232.7,326.311c-1.708,0.676-3.729,2.313-3.657,6.287l0.648,36.852c0.06,3.334,1.842,5.154,4.146,4.244l75.524-29.902 c2.268-0.896,3.809-3.926,3.746-7.367l-0.65-36.854c-0.055-3.184-1.313-4.314-3.736-3.354L232.7,326.311z" fill="inherit"/></g><g id="change2_17"><path d="M253.473,341.793c0.123,6.986-3.99,14.316-9.185,16.375c-5.194,2.056-9.507-1.94-9.631-8.93 c-0.123-6.99,3.99-14.322,9.188-16.377C249.037,330.805,253.35,334.803,253.473,341.793z" fill="inherit"/></g><g id="change4_2"><path d="M244.33,360.506c-0.342,0.136-0.683,0.246-1.018,0.341c-0.957,0.264-1.684-0.597-1.618-1.914 c0.063-1.322,0.89-2.605,1.849-2.867c0.935-0.254,1.903-0.754,2.804-1.461c0.918-0.717,1.891-0.379,2.174,0.758 c0.287,1.139-0.228,2.643-1.145,3.365C246.392,359.494,245.369,360.096,244.33,360.506z M236.233,357.693 c-0.58,0.229-1.152,0.063-1.495-0.521c-0.76-1.293-1.29-2.821-1.577-4.547c-0.199-1.198,0.401-2.668,1.34-3.278 c0.939-0.611,1.862-0.136,2.063,1.063c0.195,1.188,0.562,2.236,1.082,3.123c0.528,0.896,0.304,2.438-0.498,3.441 C236.863,357.328,236.549,357.568,236.233,357.693z M252.962,348.951c-0.21,0.082-0.423,0.113-0.631,0.088 c-0.902-0.11-1.371-1.289-1.045-2.631c0.319-1.32,0.47-2.645,0.447-3.93c-0.022-1.291,0.737-2.646,1.698-3.023 c0.959-0.381,1.756,0.355,1.777,1.648c0.032,1.867-0.188,3.789-0.654,5.711C254.304,347.846,253.658,348.674,252.962,348.951z M236.991,342.107c-0.415,0.164-0.84,0.127-1.178-0.146c-0.727-0.588-0.807-2.045-0.178-3.256c0.905-1.746,1.98-3.301,3.199-4.619 c0.85-0.918,1.899-0.866,2.353,0.119c0.451,0.98,0.128,2.523-0.717,3.441c-0.842,0.908-1.582,1.981-2.205,3.182 C237.932,341.473,237.464,341.92,236.991,342.107z M250.889,336.557c-0.471,0.184-0.942,0.114-1.294-0.252 c-0.662-0.689-1.435-1.154-2.296-1.386c-0.87-0.233-1.245-1.496-0.84-2.821c0.404-1.326,1.438-2.214,2.312-1.979 c1.248,0.332,2.369,1.01,3.328,2.01c0.667,0.697,0.644,2.193-0.046,3.347C251.725,336.02,251.309,336.389,250.889,336.557z" fill="#FFD33B"/></g><g id="change2_18"><path d="M307.504,320.402c0.122,6.99-3.988,14.32-9.185,16.377c-5.195,2.055-9.505-1.939-9.628-8.93 c-0.124-6.99,3.987-14.32,9.183-16.377C303.067,309.418,307.381,313.414,307.504,320.402z" fill="inherit"/></g><g id="change4_3"><path d="M298.36,339.117c-0.342,0.137-0.68,0.248-1.019,0.34c-0.957,0.263-1.681-0.596-1.615-1.916 c0.063-1.317,0.89-2.602,1.849-2.862c0.933-0.257,1.901-0.757,2.801-1.466c0.919-0.717,1.894-0.379,2.177,0.763 c0.285,1.139-0.229,2.643-1.146,3.36C300.425,338.107,299.399,338.705,298.36,339.117z M290.266,336.305 c-0.579,0.229-1.154,0.063-1.497-0.521c-0.758-1.291-1.287-2.82-1.575-4.547c-0.198-1.197,0.402-2.666,1.34-3.277 c0.938-0.61,1.863-0.135,2.063,1.064c0.195,1.186,0.562,2.235,1.082,3.121c0.526,0.896,0.304,2.438-0.5,3.442 C290.896,335.939,290.581,336.18,290.266,336.305z M306.992,327.563c-0.208,0.082-0.423,0.115-0.631,0.09 c-0.9-0.113-1.372-1.291-1.045-2.633c0.321-1.32,0.473-2.646,0.449-3.931c-0.022-1.289,0.734-2.645,1.696-3.022 c0.961-0.378,1.756,0.356,1.777,1.646c0.032,1.867-0.188,3.791-0.652,5.713C308.337,326.457,307.688,327.287,306.992,327.563z M291.024,320.715c-0.416,0.168-0.841,0.132-1.179-0.143c-0.727-0.59-0.807-2.045-0.179-3.256c0.906-1.746,1.981-3.301,3.2-4.619 c0.85-0.918,1.899-0.869,2.353,0.117c0.451,0.981,0.128,2.524-0.718,3.442c-0.84,0.908-1.582,1.98-2.205,3.183 C291.965,320.084,291.496,320.531,291.024,320.715z M304.922,315.166c-0.471,0.188-0.944,0.119-1.296-0.248 c-0.66-0.69-1.433-1.157-2.293-1.387c-0.871-0.232-1.245-1.496-0.84-2.82c0.403-1.325,1.438-2.215,2.311-1.981 c1.249,0.336,2.37,1.014,3.328,2.014c0.667,0.693,0.644,2.191-0.045,3.348C305.758,314.633,305.342,315.002,304.922,315.166z" fill="#FFD33B"/></g><g id="change2_19"><path d="M283.326 334.52L258.997 344.152 258.789 332.463 283.121 322.832z" fill="inherit"/></g><g id="change4_4"><path d="M274.639 337.961L267.686 340.713 267.479 329.023 274.431 326.27z" fill="#FFD33B"/></g><g id="change4_5"><path d="M191.768,374.033c0.601,34-19.4,69.67-44.673,79.672c-25.272,10.007-46.246-9.444-46.847-43.442 c-0.601-33.996,19.401-69.666,44.675-79.675C170.196,320.586,191.168,340.037,191.768,374.033z" fill="#FFD33B"/></g><g id="change2_20"><path d="M147.115,454.875c-25.713,10.179-47.125-9.68-47.737-44.268c-0.608-34.588,19.813-71.006,45.522-81.188 c25.713-10.176,47.125,9.685,47.737,44.271C193.247,408.279,172.826,444.699,147.115,454.875z M144.942,331.76 c-24.752,9.799-44.413,44.858-43.824,78.157c0.586,33.302,21.202,52.421,45.956,42.619c24.752-9.797,44.413-44.858,43.824-78.158 C190.312,341.08,169.696,321.959,144.942,331.76z" fill="inherit"/></g><g id="change2_21"><path d="M146.791,436.477c-18.17,7.195-33.305-6.84-33.733-31.283c-0.435-24.443,13.998-50.18,32.168-57.375 c18.17-7.189,33.305,6.844,33.734,31.285C179.394,403.547,164.962,429.285,146.791,436.477z M145.266,350.156 c-17.212,6.816-30.881,31.195-30.473,54.348c0.409,23.156,14.744,36.451,31.956,29.636l0,0 c17.212-6.813,30.881-31.191,30.474-54.349C176.813,356.639,162.479,343.344,145.266,350.156z" fill="inherit"/></g><g id="change2_22"><path d="M160.173,386.543c0.186,10.523-6.006,21.563-13.828,24.66c-7.821,3.098-14.315-2.924-14.5-13.447 c-0.188-10.522,6.006-21.565,13.828-24.661C153.493,369.998,159.985,376.018,160.173,386.543z" fill="inherit"/></g><g id="change4_6"><path d="M442.022,274.973c0.601,33.996-19.398,69.666-44.673,79.672c-25.274,10.002-46.246-9.447-46.847-43.445 c-0.599-34,19.402-69.67,44.676-79.672C420.451,221.523,441.426,240.973,442.022,274.973z" fill="#FFD33B"/></g><g id="change2_23"><path d="M397.37,355.813c-25.711,10.178-47.125-9.685-47.733-44.271c-0.612-34.586,19.81-71.006,45.521-81.184 c25.71-10.176,47.125,9.682,47.734,44.27S423.081,345.635,397.37,355.813z M395.199,232.695 c-24.754,9.797-44.413,44.861-43.826,78.158c0.587,33.299,21.204,52.42,45.956,42.621c24.752-9.797,44.413-44.859,43.826-78.16 C440.566,242.016,419.953,222.898,395.199,232.695z" fill="inherit"/></g><g id="change2_24"><path d="M397.049,337.414c-18.17,7.193-33.306-6.842-33.736-31.285c-0.432-24.44,14-50.182,32.171-57.371 c18.171-7.192,33.303,6.839,33.734,31.281C429.646,304.482,415.218,330.221,397.049,337.414z M395.523,251.094 c-17.212,6.813-30.881,31.152-30.475,54.31C365.457,328.558,379.794,342,397.006,335h0.002c17.21-7,30.881-31.154,30.471-54.31 C427.071,257.536,412.735,244.281,395.523,251.094z" fill="inherit"/></g><g id="change2_25"><path d="M410.428,287.477c0.185,10.524-6.006,21.567-13.827,24.662c-7.825,3.098-14.317-2.923-14.502-13.447 c-0.187-10.523,6.006-21.564,13.831-24.66C403.751,270.934,410.242,276.953,410.428,287.477z" fill="inherit"/></g><g id="change2_26"><path d="M450.457 185.963L88.979 329.055 88.938 326.717 450.416 183.625z" fill="inherit"/></g><g id="change1_4"><path d="M408.048,162.729c0.067,3.877-2.21,7.938-5.09,9.08L135.323,277.752c-2.878,1.14-5.269-1.078-5.337-4.95 l-0.37-21.039c-0.068-3.875,2.21-7.939,5.091-9.076L402.341,136.74c2.878-1.139,5.269,1.076,5.337,4.949L408.048,162.729z" fill="#FF2273"/></g><g id="change2_27"><path d="M402.09,172.152L134.455,278.094c-3.354,1.329-6.148-1.263-6.227-5.775l-0.37-21.039c-0.082-4.514,2.584-9.262,5.936-10.59 l267.636-105.941c3.354-1.328,6.146,1.26,6.228,5.773l0.372,21.039C408.105,166.074,405.444,170.824,402.09,172.152z M133.834,243.027c-2.395,0.949-4.296,4.342-4.242,7.563l0.372,21.041c0.058,3.224,2.053,5.074,4.449,4.125l267.635-105.942 c2.396-0.949,4.298-4.342,4.24-7.564l-0.369-21.043c-0.061-3.223-2.056-5.071-4.449-4.121L133.834,243.027z" fill="inherit"/></g><g id="change2_28"><path d="M399.153,154.48L138.468,257.674c-0.479,0.189-0.876-0.182-0.89-0.825c-0.009-0.646,0.37-1.324,0.85-1.513l260.684-103.192 c0.479-0.188,0.877,0.18,0.892,0.826C400.011,153.611,399.633,154.293,399.153,154.48z" fill="inherit"/></g><g id="change4_7"><path d="M392.548,161.582c0.195,11.174-6.376,22.894-14.68,26.181c-8.307,3.286-15.197-3.103-15.395-14.275 c-0.196-11.172,6.373-22.893,14.681-26.182C385.456,144.018,392.348,150.41,392.548,161.582z" fill="#FFD33B"/></g><g id="change2_29"><path d="M377.887,188.932c-8.771,3.473-16.075-3.302-16.282-15.103c-0.208-11.799,6.759-24.223,15.529-27.692 c8.77-3.474,16.071,3.303,16.279,15.1C393.624,173.039,386.657,185.461,377.887,188.932z M377.176,148.475 c-7.813,3.092-14.02,14.157-13.834,24.668c0.188,10.51,6.692,16.543,14.505,13.451c7.812-3.093,14.016-14.158,13.831-24.668 C391.492,151.416,384.986,145.381,377.176,148.475z" fill="inherit"/></g><g id="change1_5"><path d="M121.626,294.945c0.069,3.873-2.209,7.936-5.09,9.076l-12.165,4.815c-2.879,1.142-5.269-1.075-5.337-4.95 l-0.372-21.039c-0.067-3.875,2.212-7.939,5.091-9.078l12.167-4.814c2.876-1.143,5.27,1.074,5.337,4.949L121.626,294.945z" fill="#FF2273"/></g><g id="change2_30"><path d="M115.668,304.365l-12.167,4.816c-3.354,1.327-6.146-1.265-6.228-5.775l-0.37-21.041c-0.08-4.512,2.584-9.26,5.938-10.59 l12.163-4.816c3.355-1.328,6.149,1.267,6.228,5.775l0.372,21.043C121.686,298.287,119.021,303.039,115.668,304.365z M102.885,274.113c-2.396,0.947-4.301,4.342-4.24,7.564l0.37,21.041c0.057,3.223,2.052,5.073,4.446,4.125l12.167-4.816 c2.396-0.947,4.296-4.342,4.242-7.564l-0.372-21.041c-0.057-3.221-2.052-5.071-4.449-4.125L102.885,274.113z" fill="inherit"/></g><g id="change2_31"><path d="M120.884,252.861c0.023,1.291-0.736,2.647-1.695,3.027l-19.118,7.565c-0.959,0.381-1.755-0.356-1.778-1.649l-0.123-7.013 c-0.022-1.293,0.735-2.647,1.696-3.026l19.118-7.564c0.958-0.383,1.755,0.355,1.778,1.648L120.884,252.861z" fill="inherit"/></g><g id="change4_8"><path d="M110.973,253.16c0.036,2.029-1.157,4.156-2.664,4.756c-1.512,0.599-2.763-0.563-2.798-2.594 c-0.035-2.027,1.159-4.156,2.666-4.752C109.688,249.971,110.938,251.131,110.973,253.16z" fill="#FFD33B"/></g><g id="change1_6"><path d="M441.397,168.363c0.068,3.871-2.21,7.938-5.091,9.076l-12.165,4.815c-2.878,1.142-5.27-1.077-5.337-4.948 l-0.372-21.041c-0.068-3.873,2.212-7.938,5.091-9.076l12.167-4.818c2.876-1.139,5.27,1.078,5.337,4.949L441.397,168.363z" fill="#FF2273"/></g><g id="change2_32"><path d="M435.439,177.783l-12.167,4.814c-3.354,1.33-6.146-1.261-6.228-5.771l-0.37-21.041c-0.079-4.514,2.584-9.264,5.939-10.592 l12.162-4.816c3.355-1.325,6.149,1.265,6.229,5.775l0.372,21.043C441.457,171.705,438.794,176.457,435.439,177.783z M422.656,147.531c-2.396,0.949-4.301,4.342-4.241,7.564l0.369,21.043c0.059,3.223,2.054,5.071,4.447,4.123l12.167-4.814 c2.396-0.947,4.296-4.342,4.241-7.566l-0.372-21.038c-0.059-3.224-2.053-5.072-4.449-4.125L422.656,147.531z" fill="inherit"/></g><g id="change2_33"><path d="M440.655,126.281c0.023,1.289-0.736,2.646-1.695,3.023l-19.117,7.569c-0.962,0.379-1.756-0.36-1.778-1.649l-0.124-7.017 c-0.021-1.289,0.735-2.643,1.696-3.022l19.118-7.568c0.959-0.379,1.753,0.359,1.775,1.648L440.655,126.281z" fill="inherit"/></g><g id="change4_9"><path d="M430.613,126.631c0.034,2.031-1.159,4.158-2.666,4.755c-1.511,0.598-2.762-0.564-2.796-2.591 c-0.034-2.028,1.157-4.159,2.666-4.758C429.326,123.441,430.577,124.604,430.613,126.631z" fill="#FFD33B"/></g><g id="change4_10"><path d="M248.547,247.557c0.087,5.012-2.859,10.27-6.584,11.741c-3.725,1.476-6.814-1.391-6.904-6.399 c-0.089-5.014,2.859-10.269,6.586-11.742C245.364,239.682,248.458,242.547,248.547,247.557z" fill="#FFD33B"/></g><g id="change2_34"><path d="M241.983,260.467c-4.197,1.662-7.694-1.579-7.795-7.227c-0.1-5.648,3.235-11.592,7.433-13.254s7.692,1.58,7.793,7.227 C249.515,252.861,246.182,258.809,241.983,260.467z M241.662,242.324c-3.237,1.283-5.813,5.871-5.733,10.229 c0.076,4.356,2.774,6.858,6.013,5.575c3.241-1.278,5.812-5.871,5.736-10.227C247.6,243.543,244.903,241.041,241.662,242.324z" fill="inherit"/></g><g id="change4_11"><path d="M158.175,283.332c0.091,5.01-2.858,10.269-6.58,11.742c-3.727,1.475-6.816-1.393-6.907-6.406 c-0.087-5.008,2.861-10.266,6.586-11.739C154.995,275.453,158.086,278.32,158.175,283.332z" fill="#FFD33B"/></g><g id="change2_35"><path d="M151.612,296.242c-4.195,1.662-7.693-1.582-7.793-7.227c-0.1-5.648,3.235-11.595,7.433-13.257 c4.197-1.661,7.692,1.582,7.793,7.228C159.146,288.635,155.811,294.58,151.612,296.242z M151.293,278.098 c-3.238,1.28-5.812,5.871-5.733,10.229c0.074,4.357,2.772,6.861,6.013,5.578s5.812-5.871,5.734-10.23 C157.23,279.318,154.532,276.816,151.293,278.098z" fill="inherit"/></g><g id="change2_36"><path d="M154.899,284.627c0.046,2.58-1.47,5.283-3.385,6.041c-1.916,0.758-3.508-0.717-3.554-3.295 c-0.045-2.576,1.474-5.281,3.389-6.039C153.265,280.574,154.854,282.049,154.899,284.627z" fill="inherit"/></g><g id="change2_37"><path d="M241.831,263.842c-0.961,0.38-1.758-0.358-1.781-1.647l-0.368-21.043c-0.023-1.291,0.734-2.646,1.692-3.027 c0.961-0.379,1.758,0.361,1.781,1.65l0.369,21.041C243.548,262.105,242.79,263.463,241.831,263.842z" fill="inherit"/></g><g id="change4_12"><path d="M276.175,236.621c0.09,5.012-2.859,10.269-6.58,11.742c-3.727,1.477-6.816-1.391-6.905-6.404 c-0.089-5.008,2.859-10.268,6.586-11.742C272.995,228.744,276.086,231.609,276.175,236.621z" fill="#FFD33B"/></g><g id="change2_38"><path d="M269.612,249.533c-4.196,1.662-7.693-1.582-7.794-7.229c-0.102-5.646,3.234-11.595,7.433-13.257 c4.198-1.659,7.693,1.582,7.793,7.229C277.145,241.922,273.81,247.871,269.612,249.533z M269.292,231.385 c-3.238,1.282-5.812,5.87-5.733,10.231c0.075,4.357,2.772,6.859,6.013,5.576c3.242-1.281,5.813-5.869,5.734-10.229 C275.229,232.607,272.531,230.105,269.292,231.385z" fill="inherit"/></g><g id="change2_39"><path d="M269.635,252.834c-0.96,0.379-1.757-0.358-1.778-1.647l-0.372-21.043c-0.022-1.291,0.737-2.646,1.698-3.025 c0.959-0.379,1.756,0.359,1.777,1.652l0.372,21.039C271.355,251.1,270.596,252.455,269.635,252.834z" fill="inherit"/></g><g id="change4_13"><path d="M301.721,220.248c2.692,2.5,2.797,8.242,0.224,12.828c-2.569,4.586-6.839,6.275-9.537,3.775 c-2.693-2.498-2.794-8.242-0.224-12.83C294.754,219.438,299.022,217.748,301.721,220.248z" fill="#FFD33B"/></g><g id="change2_40"><path d="M297.244,238.791c-2.033,0.806-3.965,0.496-5.435-0.867c-3.039-2.819-3.152-9.317-0.256-14.485 c1.402-2.502,3.296-4.324,5.327-5.127c2.036-0.808,3.968-0.498,5.438,0.867c1.472,1.364,2.311,3.625,2.357,6.358 c0.047,2.734-0.698,5.619-2.104,8.123C301.172,236.166,299.278,237.986,297.244,238.791z M296.923,220.646 c-1.565,0.621-3.026,2.026-4.108,3.959c-2.237,3.985-2.15,9.004,0.193,11.176c2.271,2.109,6.144,0.576,8.31-3.287 c1.085-1.932,1.66-4.158,1.623-6.268c-0.036-2.113-0.685-3.855-1.821-4.908C299.983,220.264,298.493,220.025,296.923,220.646z" fill="inherit"/></g><g id="change2_41"><path d="M302.895,236.889c-0.443,0.176-0.893,0.125-1.242-0.199l-11.322-10.5c-0.693-0.644-0.719-2.123-0.058-3.305 c0.665-1.185,1.765-1.617,2.459-0.974l11.322,10.5c0.693,0.646,0.722,2.123,0.06,3.308 C303.78,236.309,303.34,236.713,302.895,236.889z" fill="inherit"/></g><g id="change2_42"><path d="M217.415 268.797L210.466 271.547 210.135 252.846 217.086 250.094z" fill="inherit"/></g><g id="change2_43"><path d="M171.901 267.98L171.983 272.656 165.032 275.408 164.95 270.73z" fill="inherit"/></g><g id="change4_14"><path d="M406.764,189.137l-67.779,26.827c-1.438,0.568-2.635-0.539-2.666-2.475 c-0.037-1.938,1.104-3.969,2.543-4.539l67.779-26.83c1.438-0.567,2.634,0.539,2.668,2.478 C409.344,186.533,408.202,188.566,406.764,189.137z" fill="#FFD33B"/></g><g id="change2_44"><path d="M187.543 261.789L187.625 266.465 180.672 269.215 180.59 264.539z" fill="inherit"/></g><g id="change2_45"><path d="M328.642 224.77L321.69 227.521 321.359 208.818 328.311 206.064z" fill="inherit"/></g><g id="change3_3"><path d="M339.344,80.92c-1.002-2.381-3.744-3.496-6.125-2.493l-222.095,93.563c-0.463-0.314-0.993-0.545-1.601-0.545 c-1.599,0-2.893,1.293-2.893,2.891c0,1.601,1.294,2.896,2.893,2.896c1.271,0,2.318-0.83,2.708-1.967l224.513-88.177 c0.029-0.012,0.077-0.03,0.106-0.043C339.23,86.041,340.345,83.299,339.344,80.92z" fill="#00BFC3"/></g><g id="change2_46"><path d="M335.03,78.059c1.826,0,3.563,1.071,4.313,2.86c1.002,2.379-0.112,5.121-2.493,6.123c-0.029,0.013-0.077,0.031-0.106,0.043 L112.23,175.262c-0.389,1.137-1.437,1.967-2.708,1.967c-1.599,0-2.893-1.295-2.893-2.896c0-1.598,1.294-2.891,2.893-2.891 c0.606,0,1.137,0.229,1.601,0.545l222.095-93.563C333.812,78.177,334.428,78.059,335.03,78.059 M335.03,75.721 c-0.936,0-1.851,0.186-2.719,0.551l-221.098,93.143c-0.55-0.207-1.116-0.309-1.691-0.309c-2.885,0-5.229,2.346-5.229,5.229 c0,2.888,2.345,5.232,5.229,5.232c1.813,0,3.465-0.953,4.403-2.461l223.671-87.844l0.026-0.011l0.133-0.055 c1.729-0.725,3.067-2.084,3.775-3.818c0.703-1.733,0.691-3.641-0.037-5.366C340.399,77.404,337.861,75.721,335.03,75.721 L335.03,75.721z" fill="inherit"/></g><g id="change2_47"><path d="M313.885,97.18c-2.307,0-4.488-1.371-5.413-3.636c-1.221-2.987,0.213-6.401,3.203-7.621l21.061-8.596 c2.985-1.225,6.398,0.215,7.62,3.199c1.219,2.99-0.215,6.402-3.201,7.621l-21.063,8.596C315.367,97.041,314.618,97.18,313.885,97.18 z" fill="inherit"/></g><g id="change2_48"><path d="M58.689 318.641H91.707V320.98H58.689z" fill="inherit" transform="rotate(-151.921 75.2 319.809)"/></g><g id="change4_15"><path d="M354.863,105.885l-2.002-85.197L98.169,121.266l2.209,90.342c0,0-2.205,2.471-7.912,2.471 s-7.988-2.084-7.988-2.084l-2.346-95.858c-0.082-3.334,1.925-6.384,5.029-7.607L357.621,1.715c2.423-0.95,5.149-0.672,7.318,0.767 c2.166,1.438,3.492,3.842,3.554,6.442l2.271,96.593c0,0-3.601,2.104-8.296,2.104C357.773,107.619,354.863,105.885,354.863,105.885z" fill="#FFD33B"/></g><g id="change2_49"><path d="M92.466,215.246c-6.09,0-8.67-2.291-8.778-2.391l-0.365-0.334l-2.358-96.357c-0.094-3.817,2.227-7.326,5.77-8.723 L357.191,0.627c2.758-1.082,5.937-0.748,8.395,0.881c2.48,1.646,4.007,4.406,4.076,7.388l2.287,97.278l-0.596,0.351 c-0.157,0.092-3.929,2.266-8.885,2.266c-4.96,0-8.073-1.821-8.204-1.899l-0.555-0.33l-1.979-84.168l-252.375,99.66l2.203,89.989 l-0.309,0.342C101.146,212.502,98.625,215.246,92.466,215.246z M85.632,211.385c0.798,0.487,2.94,1.522,6.834,1.522 c3.949,0,5.997-1.238,6.729-1.813l-2.214-90.619l0.758-0.297L353.991,18.984l2.022,86.17c1.004,0.451,3.301,1.297,6.455,1.297 c3.238,0,5.954-1.096,7.107-1.645l-2.253-95.855c-0.052-2.217-1.185-4.27-3.031-5.496c-1.827-1.209-4.192-1.459-6.242-0.651 L87.59,109.615c-2.634,1.041-4.359,3.646-4.289,6.492L85.632,211.385z" fill="inherit"/></g><g id="change4_16"><path d="M322.219,143.227c-13.078,5.135-31.592,4.86-41.349-0.613c-4.013-2.25-5.919-5.031-5.864-7.879 c0.034-1.824,0.025-8.844,0.025-8.844l59.06-2.781c0,0-0.292,5.455-0.027,8.041c0.186,1.785-0.415,3.613-1.762,5.373 C330.396,139.006,327.003,141.348,322.219,143.227z" fill="#FFD33B"/></g><g id="change2_50"><path d="M301.237,148.074c-8.396,0-15.833-1.578-20.938-4.441c-5.424-3.04-6.508-6.528-6.463-8.922 c0.034-1.815,0.025-8.817,0.025-8.817c0-0.623,0.488-1.14,1.114-1.168l59.059-2.783c0.338-0.004,0.653,0.109,0.885,0.344 c0.231,0.236,0.354,0.56,0.34,0.89c-0.005,0.053-0.285,5.393-0.032,7.856c0.215,2.068-0.478,4.215-1.999,6.203 c-2.098,2.736-5.758,5.184-10.583,7.08C316.47,146.738,308.868,148.074,301.237,148.074z M276.2,127.006 c0.002,2.063,0,6.377-0.025,7.75c-0.048,2.515,1.773,4.88,5.268,6.841c4.693,2.629,11.908,4.141,19.796,4.141 c7.347,0,14.646-1.277,20.554-3.598c4.43-1.738,7.743-3.929,9.584-6.328c1.165-1.523,1.68-3.054,1.523-4.541 c-0.191-1.881-0.104-5.131-0.034-6.933L276.2,127.006z" fill="inherit"/></g><g id="change4_17"><path d="M322.219,134.389c-13.078,5.135-31.592,4.86-41.349-0.613c-9.756-5.473-7.063-14.07,6.019-19.205 c13.075-5.133,31.586-4.859,41.343,0.613C337.986,120.654,335.297,129.256,322.219,134.389z" fill="#FFD33B"/></g><g id="change2_51"><path d="M301.237,139.236c-8.396,0-15.833-1.576-20.938-4.441c-4.398-2.467-6.688-5.764-6.445-9.284 c0.318-4.623,4.912-9.007,12.606-12.027c6.175-2.426,13.773-3.758,21.402-3.758c8.398,0,15.836,1.573,20.94,4.438 c4.396,2.467,6.686,5.765,6.442,9.287c-0.315,4.621-4.909,9.004-12.603,12.027C316.47,137.902,308.868,139.236,301.237,139.236z M307.863,112.063c-7.343,0-14.641,1.276-20.549,3.598c-6.718,2.635-10.877,6.377-11.128,10.012 c-0.18,2.605,1.639,5.058,5.255,7.087c4.692,2.631,11.908,4.141,19.796,4.141c7.346,0,14.646-1.279,20.555-3.598 c6.716-2.638,10.875-6.38,11.126-10.011c0.178-2.608-1.641-5.059-5.261-7.088C322.968,113.57,315.752,112.063,307.863,112.063z" fill="inherit"/></g><g id="change5_2"><path d="M122.827,328.982c-0.053-1.129-0.612-2.215-1.737-2.832c-2.197-1.199-5.11-0.012-7.327,0.553 c-2.104,0.539-4.157,1.238-6.135,2.133c-1.872,0.845-3.787,1.804-5.238,3.287c-1.619,1.656-2.408,3.842-2.845,6.076 c-0.662,3.424-0.829,6.949-0.734,10.432c0.07,2.781-0.443,7.707,3.13,8.589c3.47,0.854,4.349-2.585,4.913-5.119 c0.753-3.408,1.296-6.865,1.936-10.293c0.233-1.252,0.525-2.525,1.548-3.375c1.063-0.888,2.512-1.347,3.719-2.004 c2.403-1.316,4.851-2.599,7.127-4.128C122.302,331.553,122.877,330.242,122.827,328.982z" fill="#FFF"/></g><g id="change2_52"><path d="M102.962,358.52L102.962,358.52c-0.416,0-0.854-0.058-1.301-0.168c-4.018-0.986-4.013-5.563-4.013-8.593 c0.002-0.391,0.002-0.764-0.007-1.102c-0.107-3.998,0.139-7.492,0.755-10.678c0.565-2.896,1.598-5.078,3.154-6.676 c1.631-1.664,3.744-2.697,5.596-3.535c1.97-0.892,4.097-1.627,6.325-2.199c0.352-0.086,0.719-0.193,1.101-0.301 c2.25-0.646,5.143-1.201,7.076-0.146c1.416,0.777,2.269,2.162,2.347,3.806c0.068,1.741-0.76,3.403-2.164,4.346 c-1.985,1.332-4.104,2.481-6.154,3.598l-1.062,0.58c-0.436,0.236-0.897,0.451-1.365,0.666c-0.814,0.375-1.584,0.727-2.167,1.213 c-0.708,0.586-0.938,1.563-1.146,2.691c-0.201,1.071-0.394,2.149-0.584,3.227c-0.42,2.375-0.84,4.748-1.36,7.104 C107.514,354.508,106.622,358.52,102.962,358.52z M118.859,326.805c-1.15,0-2.419,0.358-3.646,0.711 c-0.403,0.114-0.792,0.227-1.162,0.319c-2.096,0.535-4.095,1.23-5.943,2.063c-1.657,0.752-3.539,1.668-4.883,3.041 c-1.249,1.278-2.053,3.02-2.532,5.483c-0.584,3.019-0.817,6.347-0.714,10.177c0.009,0.356,0.009,0.748,0.007,1.162 c0,3.155,0.165,5.811,2.231,6.319c2.039,0.49,2.79-1.078,3.493-4.235c0.512-2.32,0.928-4.662,1.343-7.005 c0.191-1.084,0.383-2.168,0.584-3.25c0.273-1.461,0.647-2.977,1.951-4.059c0.819-0.686,1.77-1.119,2.688-1.541 c0.416-0.188,0.831-0.379,1.219-0.592l1.068-0.582c2-1.088,4.071-2.215,5.967-3.486c0.733-0.492,1.165-1.375,1.128-2.305 c-0.021-0.465-0.196-1.34-1.132-1.853C120.069,326.924,119.521,326.805,118.859,326.805z" fill="inherit"/></g><g id="change5_3"><path d="M418.438,353.771c0.05,1.129,0.607,2.215,1.735,2.832c2.194,1.199,5.112,0.01,7.326-0.554 c2.102-0.538,4.157-1.237,6.135-2.133c1.869-0.844,3.787-1.803,5.237-3.287c1.617-1.655,2.411-3.842,2.846-6.075 c0.662-3.425,0.829-6.949,0.734-10.433c-0.067-2.781,0.442-7.707-3.128-8.588c-3.474-0.854-4.351,2.584-4.912,5.119 c-0.758,3.408-1.301,6.865-1.938,10.293c-0.234,1.252-0.527,2.525-1.547,3.375c-1.066,0.887-2.513,1.346-3.72,2.004 c-2.405,1.316-4.854,2.598-7.127,4.127C418.958,351.201,418.384,352.512,418.438,353.771z" fill="#FFF"/></g><g id="change2_53"><path d="M422.402,358.287L422.402,358.287c-1.05,0-1.988-0.221-2.792-0.656c-1.415-0.776-2.269-2.164-2.342-3.805 c-0.073-1.738,0.754-3.404,2.164-4.346c1.986-1.338,4.113-2.492,6.173-3.611l1.041-0.565c0.434-0.236,0.899-0.451,1.365-0.666 c0.813-0.375,1.584-0.728,2.168-1.214c0.701-0.584,0.934-1.563,1.146-2.69c0.191-1.041,0.379-2.086,0.563-3.131 c0.42-2.363,0.852-4.81,1.383-7.199c0.479-2.156,1.365-6.168,5.031-6.168c0.413,0,0.852,0.057,1.301,0.168 c4.019,0.988,4.014,5.752,4.009,8.602c0,0.39,0,0.756,0.01,1.093c0.106,3.997-0.142,7.489-0.759,10.678 c-0.557,2.891-1.588,5.072-3.154,6.676c-1.622,1.66-3.738,2.695-5.593,3.535c-1.968,0.889-4.095,1.627-6.327,2.197 c-0.348,0.088-0.713,0.192-1.092,0.303C425.378,357.861,423.885,358.287,422.402,358.287z M438.302,326.57 c-1.495,0-2.142,1.59-2.748,4.338c-0.521,2.344-0.95,4.762-1.363,7.1c-0.185,1.056-0.372,2.104-0.568,3.154 c-0.215,1.152-0.543,2.892-1.948,4.06c-0.822,0.686-1.771,1.118-2.688,1.541c-0.418,0.188-0.831,0.379-1.217,0.592l-1.048,0.569 c-2.012,1.093-4.089,2.222-5.988,3.498c-0.736,0.492-1.168,1.373-1.127,2.302c0.021,0.475,0.196,1.344,1.127,1.854 c1.256,0.688,3.386,0.213,5.319-0.34c0.4-0.115,0.79-0.229,1.159-0.32c2.099-0.539,4.096-1.231,5.939-2.063 c1.661-0.752,3.545-1.67,4.885-3.039c1.232-1.267,2.063-3.06,2.534-5.484c0.582-3.018,0.816-6.346,0.712-10.176 c-0.009-0.355-0.009-0.744-0.009-1.154c0.004-3.16-0.16-5.819-2.229-6.328C438.776,326.605,438.528,326.57,438.302,326.57z" fill="inherit"/></g><g id="change3_4"><path d="M268.78,150.539c0.534,0.133,0.979,0.692,0.99,1.242l0.195,9.926c0.012,0.55-0.397,1.167-0.908,1.371 l-14.852,5.941c-0.511,0.204-1.365,0.264-1.898,0.131l-25.709-6.365c-0.534-0.133-0.916-0.689-0.916-1.24v-9.688 c0-0.55,0.358-1.178,0.863-1.395l14.497-6.227c0.505-0.216,1.342-0.284,1.876-0.151L268.78,150.539z" fill="#00BFC3"/></g><g id="change2_54"><path d="M252.58,170.164c-0.687,0-1.326-0.067-1.852-0.199l-23.027-5.725c-1.77-0.438-3.019-2.209-3.019-4.033v-7.012 c0-1.742,1.115-3.646,2.716-4.334l12.001-5.17c1.365-0.584,3.67-0.781,5.124-0.416l23.261,5.805c1.758,0.441,3.156,2.203,3.19,4.017 l0.14,7.25c0.034,1.764-1.225,3.657-2.861,4.313l-12.367,4.949C255.017,169.957,253.778,170.164,252.58,170.164z M242.705,145.42 c-0.896,0-1.862,0.166-2.456,0.42l-12.099,5.171c-0.754,0.323-1.468,1.364-1.468,2.186v7.012c0,0.744,0.687,1.586,1.41,1.765 l23.182,5.727c0.959,0.234,2.808,0.109,3.731-0.258l12.373-4.947c0.739-0.299,1.406-1.299,1.391-2.1l-0.144-7.25 c-0.016-0.756-0.694-1.609-1.426-1.795l-23.279-5.804C243.593,145.463,243.173,145.42,242.705,145.42z" fill="inherit"/></g><g id="change2_55"><path d="M253.025 158.932L225.815 152.094 226.386 149.828 252.843 156.475 268.062 150.177 268.957 152.336z" fill="inherit"/></g><g id="change2_56"><path d="M247.259 162.392H258.952V164.73H247.259z" fill="inherit" transform="scale(-1) rotate(88.31 168.454 -260.672)"/></g><g id="change3_5"><path d="M233.718,164.564c0.534,0.133,0.979,0.691,0.99,1.242l0.195,9.926c0.011,0.55-0.398,1.167-0.909,1.371 l-14.85,5.94c-0.512,0.204-1.366,0.265-1.899,0.131l-25.678-6.364c-0.534-0.133-0.885-0.69-0.885-1.24v-9.688 c0-0.55,0.328-1.178,0.833-1.394l14.48-6.227c0.505-0.217,1.334-0.284,1.868-0.151L233.718,164.564z" fill="#00BFC3"/></g><g id="change2_57"><path d="M217.518,184.189c-0.688,0-1.326-0.068-1.853-0.199l-22.998-5.725c-1.768-0.438-2.984-2.209-2.984-4.033v-7.015 c0-1.739,1.085-3.645,2.685-4.331l11.984-5.171c1.364-0.584,3.663-0.778,5.117-0.416l23.257,5.806 c1.758,0.44,3.153,2.203,3.188,4.016l0.14,7.25c0.034,1.762-1.225,3.658-2.86,4.314l-12.37,4.948 C219.954,183.982,218.716,184.189,217.518,184.189z M207.643,159.445c-0.897,0-1.863,0.166-2.457,0.42l-12.066,5.17 c-0.753,0.324-1.437,1.365-1.437,2.185v7.014c0,0.744,0.655,1.586,1.379,1.764l23.167,5.728c0.959,0.233,2.798,0.108,3.723-0.259 l12.369-4.946c0.739-0.299,1.403-1.299,1.388-2.101l-0.144-7.25c-0.017-0.756-0.696-1.608-1.427-1.795l-23.279-5.803 C208.53,159.488,208.11,159.445,207.643,159.445z" fill="inherit"/></g><g id="change2_58"><path d="M217.963 172.957L190.752 166.119 191.323 163.854 217.78 170.5 232.999 164.201 233.894 166.361z" fill="inherit"/></g><g id="change2_59"><path d="M212.194 176.416H223.89V178.755H212.194z" fill="inherit" transform="scale(-1) rotate(88.31 182.898 -224.56)"/></g><g id="change3_6"><path d="M198.655,178.59c0.534,0.134,0.979,0.692,0.99,1.242l0.195,9.926c0.012,0.551-0.397,1.167-0.908,1.371 l-14.851,5.941c-0.511,0.204-1.366,0.264-1.898,0.131l-25.647-6.365c-0.534-0.133-0.853-0.689-0.853-1.239v-9.688 c0-0.55,0.296-1.178,0.801-1.394l14.465-6.228c0.506-0.216,1.326-0.284,1.86-0.15L198.655,178.59z" fill="#00BFC3"/></g><g id="change2_60"><path d="M182.454,198.215c-0.687,0-1.326-0.067-1.851-0.198l-22.966-5.726c-1.771-0.438-2.955-2.209-2.955-4.033v-7.014 c0-1.74,1.054-3.645,2.652-4.332l11.969-5.17c1.364-0.584,3.654-0.781,5.108-0.416l23.254,5.805 c1.758,0.441,3.151,2.203,3.186,4.017l0.137,7.25c0.034,1.762-1.224,3.656-2.862,4.313l-12.368,4.949 C184.892,198.008,183.653,198.215,182.454,198.215z M172.579,173.471c-0.896,0-1.862,0.166-2.456,0.42l-12.035,5.17 c-0.754,0.324-1.404,1.364-1.404,2.184v7.014c0,0.744,0.624,1.587,1.348,1.765l23.152,5.725c0.957,0.236,2.79,0.111,3.714-0.258 l12.366-4.945c0.739-0.299,1.401-1.299,1.385-2.102l-0.146-7.25c-0.016-0.754-0.695-1.609-1.426-1.793l-23.28-5.803 C173.468,173.514,173.047,173.471,172.579,173.471z" fill="inherit"/></g><g id="change2_61"><path d="M182.899 186.98L155.689 180.145 156.26 177.877 182.717 184.525 197.936 178.227 198.831 180.387z" fill="inherit"/></g><g id="change2_62"><path d="M177.13 190.439H188.823V192.778H177.13z" fill="inherit" transform="scale(-1) rotate(88.304 197.359 -188.461)"/></g></svg>